<?xml version="1.0"?>
<svg xmlns="http://www.w3.org/2000/svg" id="Capa_1" enable-background="new 0 0 512 512" height="512px" viewBox="0 0 512 512" width="512px"><g><g><path d="m38.328 337.333c0 54.221 44.112 98.333 98.334 98.333 54.221 0 98.333-44.112 98.333-98.333 0-17.386-4.541-33.728-12.491-47.915l-104.3-48.673c-45.429 8.664-79.876 48.676-79.876 96.588zm113.334-15v30h-30v-30z" data-original="#000000" class="active-path" data-old_color="#000000" fill="#7E4488"/><path d="m264.995 337.333c0 54.222 44.112 98.334 98.333 98.334 54.222 0 98.334-44.112 98.334-98.334 0-47.907-34.44-87.916-79.86-96.585l-104.324 48.684c-7.945 14.183-12.483 30.521-12.483 47.901zm83.333-15h30v30h-30z" data-original="#000000" class="active-path" data-old_color="#000000" fill="#7E4488"/><path d="m257.944 410.479c-4.61-3.757-7.935-5.823-7.935-5.823s-3.351 2.08-7.991 5.864c-6.049 4.932-14.281 12.774-20.191 22.725-4.352 7.328-7.445 15.792-7.445 25.09 0 31.609 35.627 53.665 35.627 53.665s35.599-22.056 35.599-53.665c0-9.293-3.088-17.753-7.433-25.079-5.922-9.984-14.181-17.845-20.231-22.777z" data-original="#000000" class="active-path" data-old_color="#000000" fill="#7E4488"/><path d="m250.079 210.395-156.155-72.012v57.927l156.081 72.837 156.081-72.838v-57.858z" data-original="#000000" class="active-path" data-old_color="#000000" fill="#7E4488"/><path d="m443.672 121.118v134.067h30v-147.902z" data-original="#000000" class="active-path" data-old_color="#000000" fill="#7E4488"/><path d="m250.079 177.359 192.261-88.663-192.335-88.696-192.261 88.662z" data-original="#000000" class="active-path" data-old_color="#000000" fill="#7E4488"/></g></g> </svg>
