<?xml version="1.0"?>
<svg xmlns="http://www.w3.org/2000/svg" xmlns:xlink="http://www.w3.org/1999/xlink" version="1.1" id="Capa_1" x="0px" y="0px" viewBox="0 0 512 512" style="enable-background:new 0 0 512 512;" xml:space="preserve" width="512px" height="512px" class=""><g><g>
	<g>
		<path d="M256,302.049c-8.067,0-14.631,6.564-14.631,14.631s6.564,14.63,14.631,14.63s14.631-6.563,14.631-14.63    C270.631,308.614,264.067,302.049,256,302.049z" data-original="#000000" class="active-path" data-old_color="#000000" fill="#83478E"/>
	</g>
</g><g>
	<g>
		<path d="M0,69.356v95.924h512V69.356H0z M418.25,132.318h-30v-30h30V132.318z M471.75,132.318h-30v-30h30V132.318z" data-original="#000000" class="active-path" data-old_color="#000000" fill="#83478E"/>
	</g>
</g><g>
	<g>
		<path d="M256,250c-36.768,0-66.681,29.913-66.681,66.681c0,36.767,29.913,66.68,66.681,66.68s66.681-29.913,66.681-66.68    C322.681,279.912,292.768,250,256,250z M256,361.31c-24.609,0-44.631-20.021-44.631-44.63c0-24.61,20.022-44.631,44.631-44.631    s44.631,20.021,44.631,44.631C300.631,341.289,280.609,361.31,256,361.31z" data-original="#000000" class="active-path" data-old_color="#000000" fill="#83478E"/>
	</g>
</g><g>
	<g>
		<path d="M31,195.279v22.365c0,60.1,23.404,116.602,65.901,159.099C139.398,419.24,195.9,442.644,256,442.644    c60.1,0,116.602-23.404,159.099-65.901C457.596,334.247,481,277.745,481,217.645v-22.365H31z M256,413.36    c-53.31,0-96.681-43.371-96.681-96.68C159.319,263.37,202.69,220,256,220s96.681,43.371,96.681,96.681S309.31,413.36,256,413.36z" data-original="#000000" class="active-path" data-old_color="#000000" fill="#83478E"/>
	</g>
</g></g> </svg>
