<?xml version="1.0"?>
<svg xmlns="http://www.w3.org/2000/svg" id="Capa_1" enable-background="new 0 0 512 512" height="512px" viewBox="0 0 512 512" width="512px"><g><g><path d="m291.503 205.585-72.084 75.178 71.312 71.312 74.587-71.518c-16.392-6.392-31.432-16.17-44.247-28.985-13.468-13.469-23.321-29.203-29.568-45.987z" data-original="#000000" class="active-path" data-old_color="#000000" fill="#7D4188"/><path d="m282.327 416.578c-14.93 0-28.967 5.814-39.525 16.372l-39.78 39.78c-11.444 11.445-30.066 11.444-41.511 0-11.444-11.445-11.444-30.066 0-41.511l39.888-39.888c6.759 3.502 14.284 5.419 22.095 5.52.219.003.436.004.654.004 12.738 0 24.815-4.817 34.068-13.604l10.831-10.385-70.42-70.42-10.385 10.83c-8.938 9.412-13.768 21.744-13.6 34.722.101 7.812 2.018 15.337 5.52 22.096l-39.889 39.888c-23.154 23.155-23.154 60.831 0 83.986 23.155 23.154 60.831 23.155 83.985 0l39.78-39.78c10.086-10.084 26.492-10.083 36.576 0 10.084 10.084 10.084 26.491 0 36.576l21.239 21.236c10.558-10.557 16.372-24.594 16.372-39.525s-5.814-28.968-16.372-39.525-24.595-16.372-39.526-16.372z" data-original="#000000" class="active-path" data-old_color="#000000" fill="#7D4188"/><path d="m203.989 123.734c-5.229-2.02-10.903-3.14-16.836-3.14-25.844 0-46.87 21.026-46.87 46.87s21.026 46.87 46.87 46.87 46.87-21.026 46.87-46.87l-.02-167.464h-170.387l.089 169.349c-5.229-2.02-10.903-3.14-16.836-3.14-25.843 0-46.869 21.025-46.869 46.87 0 25.844 21.026 46.869 46.869 46.869 25.844 0 46.87-21.026 46.87-46.869v-152.686h110.25z" data-original="#000000" class="active-path" data-old_color="#000000" fill="#7D4188"/><path d="m331.181 102.06c-28.151 39.007-24.69 93.919 10.397 129.006 18.861 18.861 43.937 29.248 70.611 29.248 21.264 0 41.51-6.608 58.405-18.842z" data-original="#000000" class="active-path" data-old_color="#000000" fill="#7D4188"/><path d="m482.799 89.844c-35.564-35.565-91.497-38.637-130.589-9.229l139.818 139.818c29.407-39.092 26.335-95.024-9.229-130.589z" data-original="#000000" class="active-path" data-old_color="#000000" fill="#7D4188"/><path d="m352.21 80.615-20.414-20.414-21.237 21.237 20.622 20.622c3.087-4.278 6.549-8.368 10.397-12.216 3.37-3.371 6.927-6.442 10.632-9.229z" data-original="#000000" class="active-path" data-old_color="#000000" fill="#7D4188"/><path d="m470.593 241.472 20.17 20.17 21.237-21.238-19.972-19.972c-2.787 3.705-5.859 7.262-9.229 10.633-3.825 3.825-7.909 7.295-12.206 10.407z" data-original="#000000" class="active-path" data-old_color="#000000" fill="#7D4188"/></g></g> </svg>
